<svg id="Calque_1" data-name="Calque 1" xmlns="http://www.w3.org/2000/svg" viewBox="0 0 566.93 155.91"><defs><style>.cls-1{fill:#fff;}.cls-2{fill:none;}.cls-3{fill:#e84a3b;}</style></defs><title>Logo_RVB_REALITES_TERRITOIRES</title><path class="cls-1" d="M273.2,98.49c-2.37.41-5.25,1.13-14.06,1.13-9.62,0-17.09-2.84-17.09-16.61V54.74c0-13.77,7.47-16.61,17.09-16.61,8.8,0,11.69.73,14.06,1.13,1.11.16,1.48.57,1.48,1.7v5.19a1.56,1.56,0,0,1-1.48,1.62H258.11c-4.29,0-5.84,1.62-5.84,7v9.59h20a1.56,1.56,0,0,1,1.48,1.62v5.83a1.56,1.56,0,0,1-1.48,1.62h-20V83c0,5.35,1.55,7,5.84,7H273.2a1.56,1.56,0,0,1,1.48,1.62v5.18c0,1.13-.37,1.54-1.48,1.7"/><path class="cls-1" d="M378,99h-7.33a1.56,1.56,0,0,1-1.48-1.62v-57a1.49,1.49,0,0,1,1.48-1.54H378a1.49,1.49,0,0,1,1.48,1.54v57A1.56,1.56,0,0,1,378,99"/><path class="cls-1" d="M424.49,48.18H411.54V97.35A1.56,1.56,0,0,1,410.06,99h-7.32a1.56,1.56,0,0,1-1.48-1.62V48.18H388.31a1.42,1.42,0,0,1-1.48-1.46v-6.4a1.49,1.49,0,0,1,1.48-1.54h36.18A1.49,1.49,0,0,1,426,40.32v6.4a1.42,1.42,0,0,1-1.48,1.46"/><path class="cls-1" d="M234.66,99.3h-9c-.82,0-1.11-.81-1.48-1.62l-10.65-24h-1c-1.92,0-4.88-.24-6.59-.32V97.68a1.5,1.5,0,0,1-1.4,1.62h-7.4a1.56,1.56,0,0,1-1.48-1.62V41.94c0-1.62.89-2.19,2.37-2.43a92.55,92.55,0,0,1,14.5-1.05c11.39,0,21.31,4.46,21.31,18.31v.73c0,8.59-4,13.64-10.09,16.23l11.71,24a1.17,1.17,0,0,1,.15.65.86.86,0,0,1-.89,1m-11.1-42.53c0-6.08-3.7-8.67-11.1-8.67-1.55,0-5.25.16-6.59.33V64.56c1.18.08,5.33.24,6.59.24,7.62,0,11.1-2.77,11.1-7.31Z"/><path class="cls-1" d="M360.64,98.16a73.55,73.55,0,0,1-12.58,1.13c-9.62,0-17.09-2.84-17.09-16.61V40.08a1.56,1.56,0,0,1,1.48-1.62h7.32a1.56,1.56,0,0,1,1.48,1.62V82.69c0,5.35,1.48,7,5.77,7h13.61a1.56,1.56,0,0,1,1.48,1.62v5.18c0,1.13-.37,1.46-1.48,1.7"/><path class="cls-1" d="M462.65,98.49c-2.37.41-5.25,1.13-14.06,1.13C439,99.62,431.5,96.78,431.5,83V54.74c0-13.77,7.47-16.61,17.09-16.61,8.8,0,11.69.73,14.06,1.13,1.11.16,1.48.57,1.48,1.7v5.19a1.56,1.56,0,0,1-1.48,1.62H447.56c-4.29,0-5.85,1.62-5.85,7v9.59h20.05a1.56,1.56,0,0,1,1.48,1.62v5.83a1.56,1.56,0,0,1-1.48,1.62H441.71V83c0,5.35,1.55,7,5.85,7h15.09a1.56,1.56,0,0,1,1.48,1.62v5.18c0,1.13-.37,1.54-1.48,1.7"/><path class="cls-1" d="M487.95,99.62a52,52,0,0,1-13.1-1.46,1.67,1.67,0,0,1-1.4-1.62V90.71a1.47,1.47,0,0,1,1.4-1.54H475c3,.4,10.36.81,13.1.81,6.59,0,8.58-2.59,8.58-7.29,0-3.16-1.4-4.78-6.29-7.94l-9.76-6.4c-6.88-4.46-8.73-9.15-8.73-14.83,0-8.91,4.73-15.39,18.49-15.39a75.73,75.73,0,0,1,14.21,1.46,1.59,1.59,0,0,1,1.33,1.54v6a1.34,1.34,0,0,1-1.26,1.46h-.15c-4.88-.49-9.77-.81-14.58-.81-5.47,0-7.77,2.11-7.77,5.75,0,2.67,1.26,4.29,6.07,7.21l8.88,5.43c8.14,4.94,10.28,10.13,10.28,16.53,0,8.18-4.66,16.93-19.46,16.93"/><path class="cls-1" d="M325.43,97.51,313.3,46.72c-1.78-7.53-7.1-8.26-10.28-8.26s-8.51.73-10.28,8.26l-12.13,50.8a3.88,3.88,0,0,1-.07.41,1.32,1.32,0,0,0,1.33,1.38h7.84a1.62,1.62,0,0,0,1.4-1.38l3.41-15.37,3.91-17.86h0l3.44-15.45c.22-1,.44-1.3,1.18-1.3s1,.32,1.18,1.3l2.22,10h0l1.22,5.47h0l3.91,17.86,3.4,15.38a1.63,1.63,0,0,0,1.41,1.38h7.84a1.32,1.32,0,0,0,1.33-1.38,3.88,3.88,0,0,1-.07-.41"/><rect class="cls-2" width="566.93" height="155.91"/><path class="cls-3" d="M100.21,74.72h0c-.27,1.6-.39,2.93-.45,3.76,0,.49,0,1,0,1.48,0,.05,0,.08,0,.08v22a2,2,0,0,0,1.94,2h9.57a1.94,1.94,0,0,0,1.93-2v-.33h0V56.58C104.2,59.86,101.21,69,100.21,74.72"/><path class="cls-1" d="M64.07,103.93a.14.14,0,0,0,.14.14.14.14,0,0,0,.13-.11h0c1.94-7,6.86-15.89,19.3-16h20.79c22,0,38.52-14.59,41-32.82l-.16,0c-1.23,7-5.47,19.23-20.06,19.36H104.44c-20.55,0-36.37,12.81-40.37,29.37h0v0"/><path class="cls-3" d="M145.29,55.17h0c.27-1.6.39-2.93.45-3.76,0-.49,0-1,0-1.48,0-.05,0-.08,0-.08v-22a2,2,0,0,0-1.94-2h-9.57a1.94,1.94,0,0,0-1.93,2v.33h0V73.31c8.94-3.28,11.93-12.44,12.94-18.14"/><path class="cls-1" d="M181.43,26a.14.14,0,0,0-.14-.14.14.14,0,0,0-.13.11h0c-1.94,7-6.86,15.89-19.3,16H141.06c-22,0-38.52,14.59-41,32.82l.16,0c1.23-7,5.47-19.23,20.06-19.36h20.79c20.55,0,36.37-12.81,40.37-29.37h0v0"/><path class="cls-3" d="M102.74,114.62V125.1h6.53v2.21h-8.92V114.62Z"/><path class="cls-3" d="M114.53,114.62h2.28l-1.41,4.08h-1.74Z"/><path class="cls-3" d="M121.89,127.31V114.62h2.38v12.69Z"/><path class="cls-3" d="M138.48,114.6h2.39v12.71h-1.49v0l-6.67-8.58v8.56h-2.39V114.62h1.94l6.22,7.87Z"/><path class="cls-3" d="M150,116.8h-4v-2.18h10.44v2.18h-4v10.51H150Z"/><path class="cls-3" d="M170.93,127.31h-9.5V114.62h9.5v2.32h-7.12v2.92h6.87v2.23h-6.87V125h7.12Z"/><path class="cls-3" d="M178.8,114.62V125.1h6.53v2.21h-8.92V114.62Z"/><path class="cls-3" d="M193,114.62V125.1h6.53v2.21h-8.92V114.62Z"/><path class="cls-3" d="M204.9,127.31V114.62h2.38v12.69Z"/><path class="cls-3" d="M222.57,117.72a4.86,4.86,0,0,0-3.23-1.27c-2.72,0-4.37,2.07-4.37,4.68a4,4,0,0,0,4.37,4.24,4.22,4.22,0,0,0,2.87-1v-2.25H219V120h5.44v5.35a6.32,6.32,0,0,1-5.06,2.28c-4.77,0-6.71-3.14-6.71-6.47,0-3.57,2.23-6.87,6.71-6.87a6.7,6.7,0,0,1,4.71,1.94Z"/><path class="cls-3" d="M239.45,127.31H230V114.62h9.5v2.32h-7.12v2.92h6.87v2.23h-6.87V125h7.13Z"/><path class="cls-3" d="M253.65,114.6H256v12.71h-1.49v0l-6.67-8.58v8.56h-2.39V114.62h1.94l6.22,7.87Z"/><path class="cls-3" d="M273.05,125.71a6.69,6.69,0,0,1-4.82,1.89c-4.71,0-6.71-3.25-6.72-6.54a6.39,6.39,0,0,1,6.72-6.69,6.54,6.54,0,0,1,4.66,1.94l-1.59,1.54a4.36,4.36,0,0,0-3.06-1.2,4.16,4.16,0,0,0-4.37,4.41,4.07,4.07,0,0,0,4.37,4.3,4.67,4.67,0,0,0,3.19-1.29Z"/><path class="cls-3" d="M287.48,127.31H278V114.62h9.5v2.32h-7.12v2.92h6.87v2.23h-6.87V125h7.13Z"/><path class="cls-3" d="M311.42,120.86c.05,3.21-1.9,6.45-6.34,6.45h-5V114.62h5A6,6,0,0,1,311.42,120.86Zm-9,4.15h2.61a4.06,4.06,0,0,0,0-8.12h-2.61Z"/><path class="cls-3" d="M326.08,127.31h-9.5V114.62h9.5v2.32H319v2.92h6.87v2.23H319V125h7.12Z"/><path class="cls-3" d="M339.77,117.68a3.64,3.64,0,0,0-3-1.41c-1.78,0-2.63.74-2.63,1.69,0,1.11,1.3,1.41,2.83,1.59,2.65.33,5.11,1,5.11,4,0,2.83-2.5,4-5.33,4-2.59,0-4.59-.8-5.53-3.12l2-1a3.62,3.62,0,0,0,3.57,2c1.5,0,2.92-.53,2.92-1.9,0-1.2-1.25-1.69-2.94-1.87-2.59-.31-5-1-5-3.84,0-2.61,2.57-3.68,4.91-3.7,2,0,4,.56,5,2.52Z"/><path class="cls-3" d="M358.12,116.8h-4v-2.18h10.44v2.18h-4v10.51h-2.39Z"/><path class="cls-3" d="M379.08,127.31h-9.5V114.62h9.5v2.32H372v2.92h6.87v2.23H372V125h7.12Z"/><path class="cls-3" d="M395.82,127.31H393l-3.7-4.24H387v4.24h-2.39V114.6l6,0c3,0,4.57,2,4.57,4.21a3.76,3.76,0,0,1-3.21,4l3.84,4.33ZM387,116.85v4.06h3.64a2,2,0,1,0,0-4.06Z"/><path class="cls-3" d="M411.68,127.31h-2.85l-3.7-4.24h-2.3v4.24h-2.39V114.6l6,0c3,0,4.57,2,4.57,4.21a3.76,3.76,0,0,1-3.21,4l3.84,4.33Zm-8.85-10.46v4.06h3.64a2,2,0,1,0,0-4.06Z"/><path class="cls-3" d="M416.31,127.31V114.62h2.38v12.69Z"/><path class="cls-3" d="M428.42,116.8h-4v-2.18h10.44v2.18h-4v10.51h-2.39Z"/><path class="cls-3" d="M452.38,121c0,3.28-2,6.56-6.51,6.56s-6.53-3.21-6.53-6.54,2.14-6.69,6.53-6.69A6.31,6.31,0,0,1,452.38,121Zm-10.68.05c.05,2.08,1.18,4.31,4.17,4.31s4.11-2.25,4.15-4.33-1.16-4.53-4.15-4.53S441.65,119,441.71,121.09Z"/><path class="cls-3" d="M457.79,127.31V114.62h2.38v12.69Z"/><path class="cls-3" d="M477.3,127.31h-2.85l-3.7-4.24h-2.3v4.24h-2.39V114.6l6,0c3,0,4.57,2,4.57,4.21a3.76,3.76,0,0,1-3.21,4l3.84,4.33Zm-8.85-10.46v4.06h3.64a2,2,0,1,0,0-4.06Z"/><path class="cls-3" d="M491.37,127.31h-9.5V114.62h9.5v2.32h-7.12v2.92h6.87v2.23h-6.87V125h7.12Z"/><path class="cls-3" d="M505.06,117.68a3.64,3.64,0,0,0-3-1.41c-1.78,0-2.63.74-2.63,1.69,0,1.11,1.3,1.41,2.83,1.59,2.65.33,5.11,1,5.11,4,0,2.83-2.5,4-5.33,4-2.59,0-4.59-.8-5.53-3.12l2-1a3.62,3.62,0,0,0,3.57,2c1.5,0,2.92-.53,2.92-1.9,0-1.2-1.25-1.69-2.94-1.87-2.59-.31-5-1-5-3.84,0-2.61,2.57-3.68,4.91-3.7,2,0,4,.56,5,2.52Z"/></svg>